<?xml version="1.0" encoding="utf-8"?>
<!-- Generator: Adobe Illustrator 19.1.1, SVG Export Plug-In . SVG Version: 6.00 Build 0)  -->
<svg version="1.1" xmlns="http://www.w3.org/2000/svg" xmlns:xlink="http://www.w3.org/1999/xlink" x="0px" y="0px"
	 viewBox="0 0 1500 1000" enable-background="new 0 0 1500 1000" xml:space="preserve">
<g id="background">
	<g>
		<linearGradient id="SVGID_1_" gradientUnits="userSpaceOnUse" x1="750" y1="1003.3333" x2="750" y2="-3.3333">
			<stop  offset="0" style="stop-color:#193866"/>
			<stop  offset="0.2828" style="stop-color:#15315E"/>
			<stop  offset="0.7279" style="stop-color:#091F47"/>
			<stop  offset="1" style="stop-color:#001136"/>
		</linearGradient>
		<rect x="-5" y="-3.333" fill="url(#SVGID_1_)" width="1510" height="1006.667"/>
		<path fill="#28457B" d="M635.758,843.933c-24.173-2.814-46.611,9.536-57.813,29.515c-8.46-12.455-22.071-21.309-38.201-23.187
			c-18.565-2.161-36.013,5.43-47.237,18.71c-14.483-27.702-41.971-47.989-75.362-51.876c-38.551-4.487-74.469,14.106-93.932,44.839
			c-4.77-17.595-19.815-31.389-39.03-33.626c-9.097-1.059-17.876,0.628-25.527,4.388c0.346-1.703,0.639-3.428,0.844-5.186
			c3.922-33.696-20.214-64.193-53.911-68.115c-18.433-2.146-35.897,4.119-48.589,15.738c-1.325-18.959-15.967-34.895-35.532-37.172
			c-14.839-1.727-28.722,4.847-37.031,16.038c-8.486-22.415-28.862-39.44-54.311-42.402c-12.452-1.449-24.499,0.656-35.126,5.51
			v190.166l660.284,21.909l1.147-9.85l7.476-64.223C655.932,849.166,646.346,845.165,635.758,843.933z"/>
		<path fill="#28457B" d="M723.383,1003.333H1505V856.145c-2.069-0.094-4.164-0.072-6.283,0.104
			c-8.793,0.729-16.837,3.762-23.612,8.44c0.029-2.256-0.041-4.533-0.231-6.828c-3.229-38.948-37.42-67.904-76.368-64.676
			c-27.275,2.261-49.631,19.715-59.485,43.344c-8.474-12.241-23.063-19.752-38.966-18.433
			c-20.968,1.738-37.164,18.233-39.251,38.426c-13.138-12.854-31.56-20.161-51.316-18.523
			c-36.113,2.994-62.962,34.696-59.968,70.809c0.156,1.884,0.408,3.736,0.717,5.567c-8.035-4.285-17.348-6.397-27.097-5.589
			c-20.592,1.707-37.144,15.901-42.859,34.516c-19.689-33.5-57.377-54.623-98.692-51.197c-35.785,2.967-65.851,23.651-82.294,52.713
			c-11.512-14.576-29.87-23.298-49.767-21.648c-17.287,1.433-32.131,10.403-41.605,23.401
			c-11.252-21.726-34.769-35.706-60.675-33.558c-11.348,0.941-21.724,4.872-30.447,10.934l5.706,68.829L723.383,1003.333z"/>
		<g>
			<path opacity="0.34" fill="#FFF2C1" d="M1197.79,404.04L633.609,932.658l-305.01-80.502l786.987-546.809l40.331-15.711
				C1155.917,289.636,1250.72,356.347,1197.79,404.04z"/>
			<linearGradient id="SVGID_2_" gradientUnits="userSpaceOnUse" x1="-71.5245" y1="1296.8114" x2="1183.4126" y2="328">
				<stop  offset="0" style="stop-color:#FFFFFF"/>
				<stop  offset="0.9946" style="stop-color:#FFFFFF;stop-opacity:0"/>
			</linearGradient>
			<polygon opacity="0.39" fill="url(#SVGID_2_)" points="424.666,994.575 1213.903,351.61 1176.813,306.893 215.281,994.575 			"/>
			<g>
				<g>
					<path fill="#C81F4F" d="M1227.198,340.72l3.104,22.575c1.288,9.368-1.407,18.847-7.432,26.135l-21.327,25.801
						c-1.25,1.513-3.708,0.634-3.715-1.328l-0.077-19.438c-0.024-6.014-1.652-11.913-4.717-17.088l-5.143-8.684L1227.198,340.72z"/>
					<path fill="#C81F4F" d="M1183.665,288.233l-21.611-7.225c-8.968-2.998-18.782-2.102-27.058,2.471l-29.3,16.189
						c-1.718,0.949-1.308,3.527,0.619,3.897l19.089,3.669c5.906,1.135,11.402,3.826,15.921,7.795l7.583,6.66L1183.665,288.233z"/>
				</g>
				<g>
					<path fill="#F8A547" d="M1179.62,358.039l-10.886-13.126l-10.886-13.126c0,0-12.257-4.53-27.258,9.778
						c-15.001,14.308-13.524,46.202-13.524,46.202s31.071,7.348,47.906-4.749C1181.805,370.922,1179.62,358.039,1179.62,358.039z"/>
					<path fill="#FFF2C1" d="M1173.236,350.343l-4.503-5.43l-4.503-5.43c0,0-5.505-1.513-13.085,5.545
						c-7.58,7.059-8.246,21.311-8.246,21.311s14.13,1.98,22.469-4.164C1173.706,356.033,1173.236,350.343,1173.236,350.343z"/>
				</g>
				<path fill="#C81F4F" d="M1323.11,220.992c0.463-1.963-2.033-4.973-4.048-4.881c-8.06,0.621-20.695,1.115-33.985,4.142
					c9.218,11.114,18.481,22.282,27.669,33.359C1318.186,241.135,1321.007,228.803,1323.11,220.992z"/>
				<path fill="#6AC2FF" d="M1287.598,294.645c3.642-4.328,8.557-11.092,12.894-17.995c4.4-6.981,8.256-14.073,11.288-20.874
					c0.332-0.721,0.651-1.442,0.966-2.163c-9.188-11.078-18.451-22.245-27.669-33.359c-0.775,0.176-1.551,0.358-2.329,0.552
					c-7.206,1.731-14.891,4.209-22.565,7.243c-7.587,2.986-15.142,6.565-20.069,9.344c-11.076,6.527-50.974,41.087-63.899,52.76
					c-10.243,9.359-18.53,16.572-23.771,21.343c0,0,0,0,0,0c-1.101,0.969-2.206,1.934-3.314,2.892
					c-3.867,3.353-4.593,8.958-1.548,12.628c11.618,14.007,23.236,28.015,34.853,42.022c3.044,3.671,8.687,3.995,12.697,0.814
					c1.147-0.912,2.299-1.819,3.455-2.722c-0.008-0.009-0.015-0.018-0.023-0.027c5.658-4.269,14.279-11.08,25.37-19.415
					C1237.795,337.144,1279.136,304.323,1287.598,294.645z"/>
				<path fill="#3BAFFF" d="M1187.997,279.727c-4.831,4.216-8.954,7.869-11.784,10.425c-10.243,9.359-18.53,16.572-23.771,21.343
					c0,0,0,0,0,0c-1.101,0.969-2.206,1.934-3.314,2.892c-3.867,3.353-4.593,8.958-1.548,12.628
					c11.618,14.007,23.236,28.015,34.853,42.022c3.044,3.671,8.687,3.995,12.697,0.814c1.147-0.912,2.299-1.819,3.455-2.722
					c-0.008-0.009-0.015-0.018-0.023-0.027c5.658-4.269,14.279-11.08,25.37-19.415c3.035-2.309,7.388-5.685,12.425-9.653
					c-8.416-7.771-17.295-17.135-26.006-27.639C1201.64,299.892,1194.079,289.434,1187.997,279.727z"/>
				<path fill="#C81F4F" d="M1141.336,367.637c1.898,2.288,5.422,2.619,10.139-0.804c10.358-7.517,22.37-17.303,32.726-26.743
					c15.579-14.2,23.664-24.344,22.047-26.293c-1.616-1.949-13.08,4.121-29.916,16.806c-11.192,8.432-23.03,18.428-32.332,27.218
					C1139.764,361.824,1139.438,365.349,1141.336,367.637L1141.336,367.637z"/>
				<circle fill="#3BAFFF" cx="1259.295" cy="269.801" r="22.14"/>
				<circle fill="#193866" cx="1259.295" cy="269.801" r="18.197"/>
			</g>
			<linearGradient id="SVGID_3_" gradientUnits="userSpaceOnUse" x1="1215.4595" y1="296.5404" x2="1246.4467" y2="343.641">
				<stop  offset="0" style="stop-color:#001136;stop-opacity:0"/>
				<stop  offset="0.7812" style="stop-color:#001136;stop-opacity:0.7812"/>
				<stop  offset="1" style="stop-color:#001136"/>
			</linearGradient>
			<path fill="url(#SVGID_3_)" d="M1302.003,234.149c-24.17,12.085-47.41,24.17-65.073,43.692
				c-16.733,17.663-39.044,25.1-52.988,45.551c-17.443,26.624-40.33,42.369-66.863,58.874c-0.11,3.381-0.014,5.503-0.014,5.503
				s31.071,7.348,47.906-4.749c9.123-6.555,12.655-13.337,13.982-18.179c1.16,1.399,2.321,2.799,3.482,4.198
				c1.835,2.212,4.613,3.2,7.409,2.946l3.193,5.392c3.065,5.175,4.693,11.074,4.717,17.088l0.077,19.438
				c0.008,1.962,2.465,2.841,3.715,1.328l21.327-25.801c6.024-7.288,8.72-16.767,7.432-26.135l-2.549-18.538
				c0.144-0.111,0.294-0.227,0.441-0.341c0.241-0.187,0.487-0.377,0.736-0.57c0.31-0.24,0.625-0.485,0.946-0.734
				c0.26-0.202,0.522-0.406,0.789-0.614c0.322-0.251,0.651-0.507,0.983-0.766c0.276-0.215,0.548-0.428,0.83-0.649
				c0.357-0.279,0.724-0.567,1.091-0.854c0.277-0.217,0.549-0.43,0.832-0.652c0.466-0.366,0.945-0.742,1.425-1.12
				c17.966-14.141,45.097-36.173,51.773-43.808c3.642-4.328,8.557-11.092,12.893-17.995c4.4-6.981,8.256-14.073,11.288-20.874
				c0.332-0.721,0.651-1.442,0.966-2.163c5.441-12.478,8.263-24.81,10.365-32.621c0.418-1.772-1.574-4.389-3.448-4.815
				C1313.68,222.437,1309.798,230.251,1302.003,234.149z"/>
		</g>
		<path fill="#FFFFFF" d="M1120.022,722.553c-3.239,0-3.244,5.033,0,5.033C1123.261,727.586,1123.267,722.553,1120.022,722.553z"/>
		<path fill="#FFFF68" d="M1337.452,567.031c-3.239,0-3.244,5.033,0,5.033C1340.69,572.064,1340.696,567.031,1337.452,567.031z"/>
		<path fill="#FFFFFF" d="M1049.056,396.409c-3.239,0-3.244,5.033,0,5.033C1052.295,401.443,1052.3,396.409,1049.056,396.409z"/>
		<path fill="#FFFFFF" d="M953.931,559.481c-3.239,0-3.244,5.033,0,5.033C957.17,564.515,957.175,559.481,953.931,559.481z"/>
		<path fill="#FFFFFF" d="M821.057,564.011c-3.239,0-3.244,5.033,0,5.033C824.296,569.044,824.302,564.011,821.057,564.011z"/>
		<path fill="#FFFFFF" d="M618.728,693.865c-3.239,0-3.244,5.033,0,5.033C621.966,698.898,621.972,693.865,618.728,693.865z"/>
		<path fill="#FFFF68" d="M324.292,677.255c-3.239,0-3.244,5.033,0,5.033C327.531,682.289,327.536,677.255,324.292,677.255z"/>
		<path fill="#38B0FF" d="M179.34,659.136c-3.239,0-3.244,5.033,0,5.033C182.578,664.17,182.584,659.136,179.34,659.136z"/>
		<path fill="#FFFF68" d="M164.24,413.019c-3.239,0-3.244,5.033,0,5.033C167.479,418.052,167.484,413.019,164.24,413.019z"/>
		<path fill="#FFFFFF" d="M544.741,487.005c-3.239,0-3.244,5.033,0,5.033C547.98,492.038,547.985,487.005,544.741,487.005z"/>
		<path fill="#38B0FF" d="M617.218,249.947c-3.239,0-3.244,5.033,0,5.033C620.456,254.98,620.462,249.947,617.218,249.947z"/>
		<path fill="#FFFFFF" d="M310.703,129.153c-3.239,0-3.244,5.033,0,5.033C313.942,134.186,313.947,129.153,310.703,129.153z"/>
		<path fill="#FFFFFF" d="M959.971,64.226c-3.239,0-3.244,5.033,0,5.033C963.209,69.259,963.215,64.226,959.971,64.226z"/>
		<path fill="#FFFFFF" d="M1011.308,209.179c-3.239,0-3.244,5.033,0,5.033C1014.547,214.212,1014.552,209.179,1011.308,209.179z"/>
		<path fill="#FFFFFF" d="M1261.955,114.054c-3.239,0-3.244,5.033,0,5.033C1265.194,119.087,1265.199,114.054,1261.955,114.054z"/>
		<path fill="#38B0FF" d="M1443.146,188.04c-3.239,0-3.244,5.033,0,5.033C1446.385,193.073,1446.39,188.04,1443.146,188.04z"/>
		<path fill="#FFFFFF" d="M1452.206,35.537c-3.239,0-3.244,5.033,0,5.033C1455.445,40.571,1455.45,35.537,1452.206,35.537z"/>
		<path fill="#38B0FF" d="M153.671,52.147c-3.239,0-3.244,5.033,0,5.033C156.91,57.18,156.915,52.147,153.671,52.147z"/>
		<path fill="#FFFFFF" d="M288.054,109.524c-3.239,0-3.244,5.033,0,5.033C291.293,114.557,291.298,109.524,288.054,109.524z"/>
		<path fill="#FFFFFF" d="M52.506,455.296c-3.239,0-3.244,5.033,0,5.033C55.745,460.33,55.75,455.296,52.506,455.296z"/>
		<path fill="#FFFF68" d="M1153.241,702.924c-3.239,0-3.244,5.033,0,5.033C1156.479,707.957,1156.485,702.924,1153.241,702.924z"/>
		<path fill="#FFFFFF" d="M1187.969,678.765c-3.239,0-3.244,5.033,0,5.033C1191.208,683.799,1191.213,678.765,1187.969,678.765z"/>
		<path fill="#FFFFFF" d="M1388.789,343.562c-3.239,0-3.244,5.033,0,5.033C1392.028,348.595,1392.033,343.562,1388.789,343.562z"/>
		<path fill="#FFFF68" d="M950.911,216.728c-3.239,0-3.244,5.033,0,5.033C954.15,221.762,954.155,216.728,950.911,216.728z"/>
		<path fill="#FFFFFF" d="M408.848,669.706c-3.239,0-3.244,5.033,0,5.033C412.087,674.739,412.092,669.706,408.848,669.706z"/>
		<path fill="#38B0FF" d="M1437.107,718.023c-3.239,0-3.244,5.033,0,5.033C1440.345,723.057,1440.351,718.023,1437.107,718.023z"/>
		<path fill="#FFFF68" d="M565.88,26.478c-3.239,0-3.244,5.033,0,5.033C569.119,31.511,569.124,26.478,565.88,26.478z"/>
		<path fill="#FFFFFF" d="M1452.793,882.855c0,12.575,2.633,24.534,7.369,35.363c-24.838,6.588-44.455,25.959-51.413,50.645
			c-17.982-19.543-43.768-31.792-72.419-31.792c-36.408,0-68.195,19.777-85.211,49.173c-21.838-9.661-45.995-15.037-71.411-15.037
			c-33.243,0-64.337,9.187-90.895,25.15c0.344-2.514,0.536-5.076,0.536-7.685c0-31.051-25.172-56.223-56.223-56.223
			c-16.035,0-30.491,6.724-40.734,17.493c-4.554-37.791-36.711-67.085-75.729-67.085c-8.308,0-16.297,1.346-23.784,3.8
			c7.937-9.295,12.74-21.347,12.74-34.527c0-29.388-23.824-53.211-53.211-53.211c-9.639,0-18.671,2.576-26.469,7.058
			c0.235-2.454,0.365-4.939,0.365-7.454c0-42.696-34.612-77.307-77.307-77.307c-29.899,0-55.815,16.985-68.675,41.822
			c-8.121-14.092-23.327-23.586-40.76-23.586c-22.986,0-42.107,16.497-46.202,38.293c-13.143-15.181-32.541-24.798-54.197-24.798
			c-39.588,0-71.68,32.092-71.68,71.68c0,2.065,0.107,4.104,0.279,6.125c-8.361-5.39-18.31-8.53-28.998-8.53
			c-22.574,0-41.875,13.959-49.778,33.711c-18.413-38.25-57.538-64.648-102.829-64.648c-39.229,0-73.829,19.807-94.354,49.962
			c-11.218-16.908-30.417-28.061-52.229-28.061c-18.95,0-35.921,8.426-47.408,21.722c-10.29-24.669-34.632-42.012-63.031-42.012
			c-12.44,0-24.091,3.344-34.136,9.156V877.5v42.779v83.055h232.771h116.766h509.93h45.526H1505v-201.12
			C1474.226,816.028,1452.793,846.937,1452.793,882.855z"/>
		<path fill="#EAEFFF" d="M848.827,1003.333c0.118-0.621,0.255-1.233,0.36-1.859c8.615-51.4-26.069-100.052-77.469-108.667
			c-35.995-6.033-70.621,9.185-91.115,36.491c-6.933-18.604-23.323-33.101-44.311-36.619c-27.672-4.638-54.021,11.363-63.348,36.778
			c-12.76-20.928-34.172-36.42-60.243-40.79c-47.659-7.988-92.769,24.172-100.757,71.83c-0.417,2.486-0.699,4.963-0.901,7.43
			c-8.978-8.176-20.321-13.964-33.188-16.12c-27.176-4.555-53.229,8.356-66.728,30.54c-14.449-49.763-56.224-89.438-110.748-98.577
			c-47.226-7.915-92.877,8.948-123.671,41.11c-10.094-22.619-30.957-39.919-57.215-44.321c-8.336-1.397-16.58-1.381-24.493-0.137
			v122.91H848.827z"/>
	</g>
</g>
<g id="Vexels">
	<g>
		<g>
			<path fill="#FFFFFF" d="M2427.897,335.484h-644.659c-10.94,0-19.81,8.87-19.81,19.81v268.082l-62.03,19.923l62.03,18.008v186.82
				c0,10.939,8.87,19.81,19.81,19.81h644.659c10.94,0,19.811-8.87,19.811-19.81V355.294
				C2447.708,344.354,2438.838,335.484,2427.897,335.484z"/>
			<rect x="1827.998" y="402.472" fill="none" width="583.032" height="407.034"/>
			<text transform="matrix(1 0 0 1 1827.998 419.5122)"><tspan x="0" y="0" fill="#333333" font-family="'MyriadPro-Regular'" font-size="24px">This design was made by vexels.com. It’s under CC 3.0 </tspan><tspan x="0" y="28.8" fill="#333333" font-family="'MyriadPro-Regular'" font-size="24px">Attribution License. This means that for free use you must </tspan><tspan x="0" y="57.6" fill="#333333" font-family="'MyriadPro-Regular'" font-size="24px">give credit and can’t do merchandise items. You can only </tspan><tspan x="0" y="86.4" fill="#333333" font-family="'MyriadPro-Regular'" font-size="24px">do commercial and merchandise items without credit if </tspan><tspan x="0" y="115.2" fill="#333333" font-family="'MyriadPro-Regular'" font-size="24px">you get a license. Learn more on </tspan><tspan x="327.785" y="115.2" fill="#C64B09" font-family="'MyriadPro-Regular'" font-size="24px">www.vexels.com/plans</tspan><tspan x="0" y="172.8" fill="#333333" font-family="'MyriadPro-Regular'" font-size="24px">You can’t sublicense, redistribute or resell an image or </tspan><tspan x="0" y="201.6" fill="#333333" font-family="'MyriadPro-Regular'" font-size="24px">part of it. You can only use our contents for products </tspan><tspan x="0" y="230.4" fill="#333333" font-family="'MyriadPro-Regular'" font-size="24px">where the design is the main reason it’s being purchased </tspan><tspan x="0" y="259.2" fill="#333333" font-family="'MyriadPro-Regular'" font-size="24px">if you get a license. Learn more on </tspan><tspan x="0" y="288" fill="#C64B09" font-family="'MyriadPro-Regular'" font-size="24px">www.vexels.com/terms-and-conditions</tspan><tspan x="0" y="345.6" fill="#333333" font-family="'MyriadPro-Regular'" font-size="24px">Thanks!</tspan><tspan x="0" y="374.4" fill="#333333" font-family="'MyriadPro-Regular'" font-size="24px">Vexels Team</tspan></text>
		</g>
	</g>
	<g>
		<g>
			<path fill="#8BA7BB" d="M755.272,946.239l-0.999-2.162c-0.49-1.04-1.797-1.524-2.895-1.076c-1.188,0.407-1.719,1.634-1.229,2.637
				l1.123,2.434l8.878,19.264c0.084,0.077,0.164,0.223,0.202,0.298c0,0.036,0.047,0.036,0.047,0.036
				c0.04,0.074,0.122,0.149,0.204,0.225c0,0.073,0.038,0.073,0.038,0.109c0.12,0.077,0.204,0.113,0.284,0.188c0.04,0,0.04,0,0.04,0
				c0.124,0.074,0.288,0.185,0.37,0.221c0.04,0,0.04,0,0.04,0s0.042,0,0.042,0.04c0.08,0,0.244,0.036,0.327,0.07
				c0.036,0,0.08,0,0.08,0c0.122,0.038,0.286,0.038,0.412,0.038c0.12,0,0.244,0,0.407-0.038c0.037,0,0.077,0,0.077,0
				c0.123-0.034,0.203-0.07,0.329-0.07c0.042-0.04,0.042-0.04,0.08-0.04c0.124-0.036,0.248-0.148,0.328-0.188
				c0.08-0.034,0.08-0.034,0.08-0.034c0.082-0.075,0.162-0.111,0.242-0.188c0.044-0.036,0.044-0.036,0.084-0.109
				c0.042-0.077,0.162-0.151,0.202-0.225c0.04,0,0.04,0,0.04-0.036c0.085-0.075,0.128-0.221,0.169-0.298l0.38-0.818l-2.42-5.24
				L755.272,946.239z M841.872,946.085c0.693-0.931,0.532-2.193-0.488-2.826c-1.022-0.705-2.37-0.52-3.143,0.447l-4.654,5.803
				l2.771,3.39L841.872,946.085z M773.133,943c-1.099-0.447-2.446,0.037-2.937,1.076l-5.914,12.777l2.427,5.245l7.651-16.462
				C774.808,944.635,774.279,943.407,773.133,943z M720.439,935.145c-0.961-0.961-2.238-1.488-3.594-1.488
				c-1.356,0-2.631,0.527-3.592,1.488l-16.446,16.45c-1.979,1.984-1.979,5.202,0,7.18l16.446,16.453
				c0.961,0.958,2.236,1.484,3.592,1.484c1.356,0,2.633-0.526,3.594-1.482l16.446-16.454c0.961-0.962,1.489-2.232,1.489-3.592
				c0-1.352-0.529-2.628-1.489-3.588L720.439,935.145z M734.332,956.662l-16.01,16.009c-0.791,0.791-2.162,0.791-2.947,0
				l-16.013-16.009c-0.813-0.814-0.813-2.137-0.004-2.952l16.017-16.011c0.013-0.013,0.026-0.026,0.042-0.036v13.268
				c-0.652,0.221-1.253,0.57-1.754,1.072c-0.851,0.851-1.317,1.978-1.317,3.181c0,1.203,0.466,2.338,1.317,3.182
				c0.849,0.856,1.981,1.322,3.18,1.322c1.205,0,2.335-0.464,3.187-1.322c1.753-1.751,1.753-4.608,0-6.367
				c-0.5-0.5-1.102-0.846-1.756-1.067v-13.268c0.014,0.009,0.031,0.023,0.047,0.036l16.01,16.011
				c0.396,0.393,0.607,0.919,0.607,1.474C734.939,955.741,734.728,956.261,734.332,956.662z M834.12,955.667l-2.74-3.418
				l-6.894-8.544c-0.699-0.966-2.126-1.152-3.107-0.447c-1.02,0.633-1.224,1.896-0.531,2.826l7.757,9.582l-7.757,9.663
				c-0.693,0.89-0.488,2.192,0.531,2.823c0.368,0.26,0.819,0.408,1.306,0.408c0.695,0,1.346-0.336,1.801-0.855l6.894-8.582
				l7.365,9.216c0.426,0.53,1.098,0.804,1.723,0.804c0.468,0,1.012-0.215,1.404-0.527c0.926-0.737,0.996-2.07,0.258-2.992
				L834.12,955.667z M798.018,942.597c-6.602,0-11.976,5.838-11.976,13.01c0,7.116,5.374,12.912,11.976,12.912
				c4.054,0,7.792-2.213,9.993-5.922c0.531-0.959,0.264-2.15-0.672-2.861c-0.302-0.194-0.657-0.298-1.02-0.298
				c-0.706,0-1.334,0.378-1.674,0.997c-1.383,2.439-3.923,3.949-6.627,3.949c-4.004,0-7.325-3.185-7.921-7.499h17.815
				c1.116,0,1.984-0.865,1.984-1.971l-0.002-0.262C809.388,947.78,804.281,942.597,798.018,942.597z M790.387,952.8
				c1.083-3.655,4.079-6.068,7.631-6.068c3.482,0,6.491,2.467,7.505,6.068H790.387z M900.08,964.32c-0.042,0-3.069,0-3.114,0
				c-1.153,0-2.495-0.666-2.495-2.53V941.1c0-1.217-0.993-2.204-2.215-2.204c-1.174,0-2.206,1.032-2.206,2.204v20.69
				c0,4.091,2.716,6.733,6.916,6.733c0.055,0,3.088,0,3.141-0.004c1.09-0.078,1.949-0.991,1.949-2.099
				C902.057,965.307,901.182,964.385,900.08,964.32z M933.862,957.49c-0.939-1.378-2.41-2.343-4.083-3.083
				c-1.632-0.707-3.551-1.19-5.633-1.56h-0.084c-2.2-0.373-4.038-0.971-5.099-1.639c-0.531-0.33-0.902-0.664-1.107-0.964
				c-0.202-0.294-0.284-0.596-0.284-1.037c0-0.783,0.447-1.598,1.555-2.341c1.099-0.744,2.734-1.265,4.568-1.265
				c2.49,0,4.489,1.114,6.574,2.378c0.98,0.591,2.286,0.333,2.898-0.558c0.653-0.855,0.368-2.045-0.569-2.637
				c-2.084-1.226-4.986-2.976-8.903-2.976c-2.655,0-5.14,0.707-7.06,1.97c-1.879,1.27-3.268,3.196-3.268,5.429
				c0,1.112,0.326,2.153,0.943,3.042c0.895,1.302,2.244,2.234,3.79,2.898c1.555,0.669,3.354,1.116,5.267,1.45h0.086
				c2.405,0.408,4.409,1.038,5.593,1.745c0.609,0.374,0.976,0.743,1.224,1.116c0.245,0.373,0.366,0.703,0.366,1.187
				c0,0.93-0.528,1.859-1.757,2.677c-1.222,0.816-3.06,1.375-5.099,1.375c-2.901,0.036-6.003-1.526-7.797-2.861
				c-0.901-0.673-2.246-0.56-2.981,0.254c-0.694,0.819-0.572,2.047,0.326,2.715c2.33,1.675,6.041,3.682,10.453,3.716
				c2.897,0,5.551-0.779,7.552-2.114c2.04-1.343,3.508-3.382,3.508-5.763C934.84,959.492,934.476,958.381,933.862,957.49z
				 M866.187,942.597c-6.602,0-11.974,5.838-11.974,13.01c0,7.116,5.372,12.912,11.974,12.912c4.06,0,7.789-2.213,9.997-5.922
				c0.529-0.959,0.262-2.15-0.67-2.861c-0.305-0.194-0.659-0.298-1.023-0.298c-0.705,0-1.331,0.378-1.673,0.997
				c-1.382,2.439-3.922,3.949-6.63,3.949c-4.005,0-7.325-3.185-7.919-7.499h17.818c1.111,0,1.983-0.865,1.983-1.971v-0.262
				C877.561,947.78,872.455,942.597,866.187,942.597z M858.559,952.8c1.081-3.655,4.079-6.068,7.629-6.068
				c3.489,0,6.493,2.467,7.507,6.068H858.559z"/>
		</g>
		<g>
			<path fill="#8BA7BB" d="M574.516,956.91c0,0.774,0.007,1.473,0.02,2.103c0.015,0.624,0.085,1.243,0.205,1.85h-1.226l-0.453-1.611
				h-0.092c-0.302,0.529-0.74,0.968-1.317,1.316c-0.575,0.347-1.247,0.521-2.021,0.521c-1.512,0-2.638-0.474-3.372-1.431
				c-0.734-0.953-1.1-2.444-1.1-4.474c0-1.936,0.459-3.407,1.375-4.413c0.914-1.006,2.175-1.508,3.779-1.508
				c0.56,0,1.003,0.028,1.329,0.087c0.325,0.061,0.676,0.159,1.055,0.296v-4.722h1.818V956.91z M569.928,959.502
				c0.771,0,1.385-0.203,1.84-0.604c0.451-0.401,0.762-1.01,0.929-1.828v-5.631c-0.273-0.211-0.581-0.364-0.929-0.455
				c-0.351-0.09-0.811-0.136-1.386-0.136c-1.045,0-1.861,0.345-2.452,1.035c-0.59,0.687-0.886,1.787-0.886,3.299
				c0,0.622,0.05,1.198,0.149,1.726c0.096,0.533,0.26,0.985,0.488,1.364c0.227,0.38,0.525,0.678,0.898,0.898
				C568.949,959.391,569.399,959.502,569.928,959.502z"/>
			<path fill="#8BA7BB" d="M586.3,959.909c-0.457,0.364-1.025,0.651-1.714,0.863c-0.69,0.212-1.419,0.317-2.191,0.317
				c-0.863,0-1.613-0.14-2.25-0.42c-0.633-0.279-1.157-0.68-1.566-1.203c-0.408-0.523-0.712-1.148-0.907-1.874
				c-0.199-0.726-0.298-1.54-0.298-2.45c0-1.938,0.434-3.416,1.297-4.431c0.861-1.012,2.095-1.522,3.7-1.522
				c0.514,0,1.027,0.059,1.543,0.174c0.516,0.111,0.976,0.328,1.385,0.647c0.409,0.317,0.743,0.768,1.001,1.349
				c0.256,0.584,0.386,1.352,0.386,2.304c0,0.5-0.045,1.055-0.138,1.658h-7.287c0,0.666,0.067,1.257,0.204,1.773
				c0.136,0.515,0.346,0.949,0.636,1.303c0.288,0.357,0.661,0.631,1.123,0.819c0.462,0.19,1.025,0.285,1.692,0.285
				c0.514,0,1.028-0.094,1.545-0.275c0.514-0.18,0.9-0.394,1.158-0.634L586.3,959.909z M582.394,950.782
				c-0.893,0-1.61,0.232-2.146,0.703c-0.539,0.469-0.859,1.271-0.964,2.408h5.63c0-1.152-0.22-1.958-0.659-2.42
				C583.815,951.011,583.196,950.782,582.394,950.782z"/>
			<path fill="#8BA7BB" d="M594.54,957.729c0-0.457-0.136-0.811-0.406-1.067c-0.275-0.258-0.612-0.472-1.013-0.647
				c-0.401-0.174-0.84-0.342-1.315-0.5c-0.478-0.157-0.917-0.363-1.318-0.612c-0.401-0.25-0.737-0.572-1.01-0.964
				c-0.271-0.396-0.409-0.926-0.409-1.592c0-1.089,0.309-1.885,0.931-2.394c0.62-0.508,1.484-0.764,2.589-0.764
				c0.817,0,1.503,0.075,2.054,0.22c0.552,0.143,1.033,0.313,1.442,0.512l-0.432,1.495c-0.349-0.164-0.769-0.313-1.26-0.439
				c-0.493-0.13-1.018-0.194-1.58-0.194c-0.666,0-1.154,0.112-1.463,0.34c-0.312,0.229-0.466,0.621-0.466,1.18
				c0,0.393,0.135,0.701,0.41,0.92c0.271,0.22,0.607,0.417,1.008,0.591c0.401,0.174,0.84,0.344,1.318,0.511
				c0.476,0.167,0.915,0.386,1.316,0.659c0.401,0.272,0.738,0.615,1.01,1.032c0.273,0.417,0.408,0.962,0.408,1.644
				c0,0.487-0.078,0.941-0.236,1.364c-0.16,0.426-0.406,0.788-0.739,1.09c-0.335,0.304-0.745,0.542-1.238,0.715
				c-0.492,0.173-1.069,0.262-1.735,0.262c-0.864,0-1.599-0.085-2.202-0.249c-0.607-0.168-1.114-0.363-1.522-0.59l0.544-1.545
				c0.349,0.197,0.802,0.378,1.364,0.546c0.56,0.166,1.126,0.251,1.702,0.251c0.651,0,1.19-0.13,1.611-0.388
				C594.328,958.856,594.54,958.395,594.54,957.729z"/>
			<path fill="#8BA7BB" d="M599.105,946.014c0-0.347,0.116-0.647,0.351-0.9c0.235-0.25,0.535-0.374,0.898-0.374
				c0.363,0,0.672,0.124,0.93,0.374c0.258,0.253,0.386,0.552,0.386,0.9c0,0.345-0.128,0.636-0.386,0.861
				c-0.258,0.229-0.567,0.342-0.93,0.342c-0.363,0-0.663-0.113-0.898-0.342C599.22,946.65,599.105,946.359,599.105,946.014z
				 M599.49,949.464h1.816v11.351h-1.816V949.464z"/>
			<path fill="#8BA7BB" d="M613.885,961.339c0,1.468-0.391,2.551-1.17,3.248c-0.779,0.695-1.932,1.043-3.462,1.043
				c-0.908,0-1.639-0.056-2.191-0.169c-0.551-0.113-1.025-0.262-1.421-0.444l0.479-1.544c0.348,0.138,0.734,0.267,1.158,0.387
				c0.424,0.122,0.976,0.181,1.658,0.181c0.635,0,1.153-0.057,1.554-0.17c0.401-0.112,0.724-0.304,0.964-0.569
				c0.242-0.263,0.409-0.605,0.5-1.022c0.09-0.417,0.136-0.912,0.136-1.487v-1.088H612c-0.304,0.439-0.689,0.776-1.157,1.01
				c-0.47,0.235-1.083,0.354-1.841,0.354c-1.528,0-2.652-0.478-3.371-1.433c-0.72-0.953-1.079-2.436-1.079-4.451
				c0-1.936,0.462-3.407,1.384-4.413c0.924-1.006,2.286-1.508,4.087-1.508c0.863,0,1.602,0.067,2.215,0.202
				c0.613,0.136,1.161,0.296,1.646,0.476V961.339z M609.321,959.476c0.771,0,1.377-0.192,1.816-0.579
				c0.439-0.386,0.751-0.987,0.932-1.804v-5.813c-0.607-0.289-1.379-0.432-2.317-0.432c-1.029,0-1.838,0.35-2.429,1.044
				c-0.59,0.695-0.886,1.787-0.886,3.269c0,0.636,0.054,1.219,0.159,1.747c0.107,0.533,0.273,0.985,0.5,1.364
				c0.227,0.38,0.521,0.674,0.886,0.886C608.345,959.372,608.79,959.476,609.321,959.476z"/>
			<path fill="#8BA7BB" d="M624.669,960.815v-6.468c0-1.182-0.17-2.073-0.511-2.668c-0.34-0.6-0.965-0.898-1.872-0.898
				c-0.804,0-1.467,0.216-1.988,0.647c-0.521,0.429-0.89,0.973-1.102,1.623v7.763h-1.816v-11.351h1.271l0.34,1.384h0.092
				c0.365-0.485,0.851-0.884,1.465-1.193c0.612-0.308,1.344-0.467,2.19-0.467c0.623,0,1.167,0.075,1.634,0.22
				c0.47,0.143,0.859,0.396,1.171,0.758c0.309,0.363,0.544,0.852,0.703,1.465c0.16,0.614,0.239,1.39,0.239,2.328v6.856H624.669z"/>
			<path fill="#8BA7BB" d="M638.086,959.909c-0.453,0.364-1.024,0.651-1.713,0.863c-0.69,0.212-1.419,0.317-2.191,0.317
				c-0.862,0-1.613-0.14-2.248-0.42c-0.635-0.279-1.158-0.68-1.568-1.203c-0.408-0.523-0.712-1.148-0.907-1.874
				c-0.197-0.726-0.296-1.54-0.296-2.45c0-1.938,0.432-3.416,1.295-4.431c0.861-1.012,2.096-1.522,3.7-1.522
				c0.516,0,1.03,0.059,1.545,0.174c0.512,0.111,0.974,0.328,1.385,0.647c0.407,0.317,0.739,0.768,0.997,1.349
				c0.258,0.584,0.387,1.352,0.387,2.304c0,0.5-0.046,1.055-0.135,1.658h-7.29c0,0.666,0.069,1.257,0.204,1.773
				c0.136,0.515,0.348,0.949,0.636,1.303c0.288,0.357,0.661,0.631,1.123,0.819c0.462,0.19,1.025,0.285,1.692,0.285
				c0.516,0,1.03-0.094,1.546-0.275c0.513-0.18,0.899-0.394,1.157-0.634L638.086,959.909z M634.183,950.782
				c-0.893,0-1.608,0.232-2.146,0.703c-0.537,0.469-0.86,1.271-0.965,2.408h5.632c0-1.152-0.221-1.958-0.659-2.42
				C635.604,951.011,634.983,950.782,634.183,950.782z"/>
			<path fill="#8BA7BB" d="M650.055,956.91c0,0.774,0.005,1.473,0.021,2.103c0.017,0.624,0.084,1.243,0.204,1.85h-1.226
				l-0.453-1.611h-0.091c-0.304,0.529-0.743,0.968-1.316,1.316c-0.577,0.347-1.251,0.521-2.023,0.521
				c-1.512,0-2.637-0.474-3.372-1.431c-0.733-0.953-1.102-2.444-1.102-4.474c0-1.936,0.459-3.407,1.375-4.413
				c0.914-1.006,2.175-1.508,3.781-1.508c0.56,0,1.003,0.028,1.327,0.087c0.327,0.061,0.678,0.159,1.056,0.296v-4.722h1.818V956.91z
				 M645.467,959.502c0.772,0,1.384-0.203,1.839-0.604c0.452-0.401,0.764-1.01,0.93-1.828v-5.631
				c-0.271-0.211-0.583-0.364-0.93-0.455c-0.347-0.09-0.81-0.136-1.386-0.136c-1.045,0-1.86,0.345-2.45,1.035
				c-0.591,0.687-0.887,1.787-0.887,3.299c0,0.622,0.048,1.198,0.148,1.726c0.098,0.533,0.262,0.985,0.487,1.364
				c0.229,0.38,0.527,0.678,0.9,0.898C644.487,959.391,644.937,959.502,645.467,959.502z"/>
			<path fill="#8BA7BB" d="M659.612,944.923h1.816v5.655h0.092c0.347-0.439,0.79-0.779,1.327-1.022
				c0.536-0.242,1.125-0.367,1.758-0.367c1.471,0,2.569,0.472,3.306,1.41c0.734,0.939,1.1,2.393,1.1,4.359
				c0,1.984-0.485,3.491-1.454,4.518c-0.968,1.03-2.331,1.543-4.086,1.543c-0.849,0-1.616-0.089-2.303-0.271
				c-0.689-0.181-1.209-0.378-1.557-0.591V944.923z M664.29,950.782c-0.758,0-1.372,0.21-1.839,0.633
				c-0.47,0.425-0.809,1.024-1.022,1.794v5.721c0.286,0.168,0.638,0.294,1.045,0.378c0.408,0.082,0.832,0.124,1.271,0.124
				c1.028,0,1.851-0.366,2.464-1.092c0.612-0.726,0.917-1.86,0.917-3.403c0-0.59-0.052-1.144-0.157-1.66
				c-0.107-0.515-0.273-0.953-0.5-1.317c-0.227-0.364-0.518-0.652-0.872-0.859C665.238,950.889,664.803,950.782,664.29,950.782z"/>
			<path fill="#8BA7BB" d="M674.949,956.821l0.638,2.178h0.114l0.501-2.199l2.211-7.335h1.816l-3.361,10.194
				c-0.258,0.741-0.51,1.461-0.76,2.158c-0.251,0.695-0.528,1.316-0.828,1.862c-0.304,0.546-0.646,0.98-1.022,1.306
				c-0.38,0.324-0.818,0.487-1.318,0.487c-0.544,0-0.991-0.077-1.339-0.225l0.317-1.568c0.197,0.076,0.385,0.112,0.569,0.112
				c0.425,0,0.831-0.223,1.226-0.668c0.392-0.447,0.718-1.214,0.976-2.307l-4.565-11.351h2.088L674.949,956.821z"/>
		</g>
	</g>
</g>
</svg>
